<svg width="241" height="41" viewBox="0 0 241 41" fill="none" xmlns="http://www.w3.org/2000/svg">
<path d="M43.5105 12.0746V35.4139C43.5128 35.8527 43.4281 36.2876 43.2612 36.6935C43.0944 37.0994 42.8487 37.4681 42.5384 37.7784C42.2281 38.0887 41.8593 38.3344 41.4535 38.5013C41.0476 38.6681 40.6127 38.7528 40.1738 38.7505H23.508C23.0692 38.7528 22.6342 38.6681 22.2284 38.5013C21.8225 38.3344 21.4537 38.0887 21.1434 37.7784C20.8331 37.4681 20.5874 37.0994 20.4206 36.6935C20.2537 36.2876 20.169 35.8527 20.1713 35.4139V12.0746H25.1676C25.6161 12.0741 26.0478 12.2461 26.373 12.555C26.6982 12.864 26.8921 13.2862 26.9145 13.7342V16.2324C26.9145 16.8949 27.1777 17.5303 27.6462 17.9988C28.1147 18.4673 28.7501 18.7305 29.4127 18.7305C30.0752 18.7305 30.7106 18.4673 31.1791 17.9988C31.6476 17.5303 31.9108 16.8949 31.9108 16.2324V13.7342C31.9332 13.2862 32.1271 12.864 32.4523 12.555C32.7776 12.2461 33.2092 12.0741 33.6577 12.0746H43.5105Z" stroke="#E6A559" stroke-width="3" stroke-miterlimit="10"/>
<path d="M43.5104 15.4113H48.5066C49.3797 15.4064 50.2198 15.7439 50.8469 16.3514C51.4739 16.9588 51.8379 17.7879 51.8608 18.6606V25.334C51.8608 25.7721 51.7745 26.206 51.6068 26.6108C51.4391 27.0157 51.1933 27.3835 50.8835 27.6933C50.5737 28.0032 50.2058 28.249 49.801 28.4166C49.3962 28.5843 48.9623 28.6706 48.5241 28.6706H43.5104V15.4113Z" stroke="#E6A559" stroke-width="3" stroke-miterlimit="10"/>
<path d="M28.5035 18.7479V33.7542" stroke="#E6A559" stroke-width="3" stroke-miterlimit="10"/>
<path d="M35.177 18.7479V33.7542" stroke="#E6A559" stroke-width="3" stroke-miterlimit="10"/>
<path d="M33.5172 12.0746H42.6886C43.3174 12.0221 43.9034 11.7352 44.3306 11.2709C44.7577 10.8066 44.9948 10.1987 44.9948 9.56775C44.9948 8.93683 44.7577 8.32894 44.3306 7.86461C43.9034 7.40028 43.3174 7.11341 42.6886 7.06088H40.173C40.1689 6.1922 39.828 5.35899 39.2219 4.73664C38.6159 4.11429 37.792 3.75135 36.9237 3.72421C36.5402 3.73031 36.1612 3.80731 35.8057 3.95131C35.3 3.28635 34.6341 2.76037 33.8701 2.42247C33.1061 2.08457 32.2689 1.94578 31.4368 2.01906C30.6046 2.09233 29.8046 2.37527 29.1114 2.84148C28.4182 3.30768 27.8544 3.94194 27.4728 4.68503C27.1705 4.38224 26.8109 4.14284 26.4149 3.98085C26.0189 3.81886 25.5946 3.73755 25.1668 3.74168C24.2863 3.74622 23.4428 4.09682 22.8186 4.71782C22.1943 5.33882 21.8393 6.18039 21.8301 7.06088H21.0091C20.6623 7.0319 20.3132 7.0752 19.984 7.18803C19.6548 7.30086 19.3526 7.48076 19.0965 7.71637C18.8403 7.95199 18.6359 8.23817 18.4961 8.55685C18.3562 8.87552 18.284 9.21974 18.284 9.56775C18.284 9.91575 18.3562 10.26 18.4961 10.5786C18.6359 10.8973 18.8403 11.1835 19.0965 11.4191C19.3526 11.6547 19.6548 11.8346 19.984 11.9475C20.3132 12.0603 20.6623 12.1036 21.0091 12.0746H25.1668" stroke="#E6A559" stroke-width="3" stroke-miterlimit="10"/>
<path d="M14.7227 10.6883L12.1788 13.2321C11.1793 14.2316 10.6178 15.5872 10.6178 17.0008C10.6178 18.4143 11.1793 19.7699 12.1788 20.7694L13.4978 22.0884L16.0417 19.5446C17.0412 18.5451 17.6027 17.1895 17.6027 15.776C17.6027 14.3624 17.0412 13.0068 16.0417 12.0073L14.7227 10.6883Z" stroke="#E6A559" stroke-width="2" stroke-miterlimit="10"/>
<path d="M10.9071 24.6645L13.451 22.1207L12.1791 20.8488C11.1795 19.8493 9.82392 19.2877 8.4104 19.2877C6.99689 19.2877 5.64127 19.8493 4.64176 20.8488L2.09792 23.3926L3.32273 24.6174C4.32224 25.6169 5.67786 26.1784 7.09138 26.1784C8.5049 26.1784 9.86052 25.6169 10.86 24.6174L10.9071 24.6645Z" stroke="#E6A559" stroke-width="2" stroke-miterlimit="10"/>
<path d="M21.078 24.5779L18.5341 27.1217L17.2622 25.8498C16.2627 24.8503 15.7012 23.4947 15.7012 22.0811C15.7012 20.6676 16.2627 19.312 17.2622 18.3125L19.806 15.7687L21.0779 17.0406" stroke="#E6A559" stroke-width="2" stroke-miterlimit="10"/>
<path d="M15.9809 29.7543L18.5247 27.2105L17.2905 25.9762C16.291 24.9767 14.9353 24.4152 13.5218 24.4152C12.1083 24.4152 10.7527 24.9767 9.75318 25.9762L7.15281 28.5766L8.33994 29.7637C8.83723 30.2737 9.43172 30.6789 10.0883 30.9552C10.7448 31.2315 11.4501 31.3735 12.1624 31.3726C12.8747 31.3717 13.5796 31.228 14.2355 30.9501C14.8913 30.6721 15.4848 30.2655 15.9809 29.7543Z" stroke="#E6A559" stroke-width="2" stroke-miterlimit="10"/>
<path d="M21.0767 34.8536C20.5802 35.3628 19.9868 35.7674 19.3315 36.0437C18.6762 36.32 17.9722 36.4623 17.261 36.4623C16.5498 36.4623 15.8458 36.32 15.1905 36.0437C14.5352 35.7674 13.9418 35.3628 13.4452 34.8536L12.2204 33.6288L14.8114 31.0378C15.8109 30.0383 17.1665 29.4768 18.58 29.4768C19.9935 29.4768 20.0772 30.0383 21.0767 31.0378" stroke="#E6A559" stroke-width="2" stroke-miterlimit="10"/>
<path d="M2 10.681L2 12.9194C2 14.3329 2.56152 15.6886 3.56102 16.6881C4.56053 17.6876 5.91615 18.2491 7.32967 18.2491H9.63475V16.0772C9.63475 14.6637 9.07323 13.3081 8.07373 12.3086C7.07422 11.3091 5.7186 10.7476 4.30508 10.7476H2V10.681Z" stroke="#E6A559" stroke-width="2" stroke-miterlimit="10"/>
<path d="M53.2012 20.7694C54.2007 19.7699 54.7622 18.4143 54.7622 17.0008C54.7622 15.5872 54.2007 14.2316 53.2012 13.2321L50.6573 10.6883L49.3383 12.0073C48.3388 13.0068 47.7773 14.3624 47.7773 15.776" stroke="#E6A559" stroke-width="2" stroke-miterlimit="10"/>
<path d="M54.4729 24.6645L51.929 22.1207L53.201 20.8488C54.2005 19.8493 55.5561 19.2877 56.9696 19.2877C58.3831 19.2877 59.7387 19.8493 60.7382 20.8488L63.2821 23.3926L62.0573 24.6174C61.0578 25.6169 59.7021 26.1784 58.2886 26.1784C56.8751 26.1784 55.5195 25.6169 54.52 24.6174L54.4729 24.6645Z" stroke="#E6A559" stroke-width="2" stroke-miterlimit="10"/>
<path d="M49.3991 29.7543C49.8952 30.2655 50.4887 30.6721 51.1445 30.9501C51.8004 31.228 52.5053 31.3717 53.2176 31.3726C53.9299 31.3735 54.6352 31.2315 55.2917 30.9552C55.9483 30.6789 56.5428 30.2737 57.0401 29.7637L58.2272 28.5766L55.6268 25.9762C54.6273 24.9767 53.2717 24.4152 51.8582 24.4152" stroke="#E6A559" stroke-width="2" stroke-miterlimit="10"/>
<path d="M44.3033 34.8536C44.7998 35.3628 45.3932 35.7674 46.0485 36.0437C46.7038 36.32 47.4078 36.4623 48.119 36.4623C48.8302 36.4623 49.5342 36.32 50.1895 36.0437C50.8449 35.7674 51.4383 35.3628 51.9348 34.8536L53.1596 33.6288L50.5686 31.0378C49.5691 30.0383 48.2135 29.4768 46.8 29.4768C45.3865 29.4768 44.0309 30.0383 43.0313 31.0378" stroke="#E6A559" stroke-width="2" stroke-miterlimit="10"/>
<path d="M63.38 10.681V12.9194C63.38 14.3329 62.8185 15.6886 61.819 16.6881C60.8195 17.6876 59.4639 18.2491 58.0503 18.2491H55.7453V16.0772C55.7453 14.6637 56.3068 13.3081 57.3063 12.3086C58.3058 11.3091 59.6614 10.7476 61.0749 10.7476H63.38V10.681Z" stroke="#E6A559" stroke-width="2" stroke-miterlimit="10"/>
<path d="M98.13 21.5753C100.297 21.7419 101.888 22.2419 102.905 23.0753C103.922 23.9086 104.43 24.8919 104.43 26.0253C104.43 27.5753 103.822 28.7753 102.605 29.6253C101.388 30.4586 99.6967 30.8753 97.53 30.8753C97.0467 30.8753 96.6383 30.8669 96.305 30.8503C95.205 30.8169 94.13 30.8003 93.08 30.8003C91.3633 30.8003 90.08 30.8253 89.23 30.8753V30.3753C89.78 30.3419 90.18 30.2753 90.43 30.1753C90.6967 30.0753 90.8717 29.8836 90.955 29.6003C91.055 29.3169 91.105 28.8586 91.105 28.2253V15.8253C91.105 15.1919 91.055 14.7336 90.955 14.4503C90.8717 14.1669 90.6967 13.9753 90.43 13.8753C90.18 13.7753 89.78 13.7086 89.23 13.6753V13.1753C90.08 13.2253 91.3467 13.2503 93.03 13.2503L95.805 13.2253C96.1383 13.2086 96.5217 13.2003 96.955 13.2003C98.955 13.2003 100.48 13.5586 101.53 14.2753C102.597 14.9919 103.13 15.9419 103.13 17.1253C103.13 18.0919 102.705 18.9919 101.855 19.8253C101.022 20.6586 99.78 21.2253 98.13 21.5253V21.5753ZM96.63 13.6753C96.18 13.6753 95.8467 13.7336 95.63 13.8503C95.43 13.9669 95.2883 14.1753 95.205 14.4753C95.1217 14.7753 95.08 15.2253 95.08 15.8253V21.4753H96.155C97.2383 21.4753 97.9967 21.1086 98.43 20.3753C98.8633 19.6253 99.08 18.6336 99.08 17.4003C99.08 16.1503 98.88 15.2169 98.48 14.6003C98.0967 13.9836 97.48 13.6753 96.63 13.6753ZM96.805 30.3003C99.1217 30.3003 100.28 28.8419 100.28 25.9253C100.28 24.6086 99.9467 23.6086 99.28 22.9253C98.6133 22.2419 97.5633 21.9003 96.13 21.9003H95.08V28.2253C95.08 28.8253 95.1217 29.2669 95.205 29.5503C95.2883 29.8336 95.4467 30.0336 95.68 30.1503C95.93 30.2503 96.305 30.3003 96.805 30.3003ZM119.077 27.6253C119.077 28.5753 119.135 29.6586 119.252 30.8753C118.169 30.8253 116.344 30.8003 113.777 30.8003C110.344 30.8003 107.76 30.8253 106.027 30.8753V30.3753C106.594 30.3419 107.002 30.2753 107.252 30.1753C107.502 30.0753 107.669 29.8836 107.752 29.6003C107.852 29.3169 107.902 28.8586 107.902 28.2253V18.3253C107.902 17.6919 107.852 17.2336 107.752 16.9503C107.669 16.6669 107.494 16.4753 107.227 16.3753C106.977 16.2753 106.577 16.2086 106.027 16.1753V15.6753C107.76 15.7253 110.344 15.7503 113.777 15.7503C116.11 15.7503 117.769 15.7253 118.752 15.6753C118.635 16.7919 118.577 17.7919 118.577 18.6753C118.577 19.3253 118.602 19.8419 118.652 20.2253H118.077C117.827 18.7919 117.394 17.7753 116.777 17.1753C116.16 16.5586 115.31 16.2503 114.227 16.2503H113.302C112.869 16.2503 112.544 16.2919 112.327 16.3753C112.11 16.4419 111.952 16.5919 111.852 16.8253C111.769 17.0419 111.727 17.3919 111.727 17.8753V22.9753H112.902C113.669 22.9753 114.244 22.7086 114.627 22.1753C115.027 21.6253 115.294 20.9919 115.427 20.2753H116.002C115.952 20.8419 115.927 21.4919 115.927 22.2253V23.2253C115.927 23.9753 115.977 24.9586 116.077 26.1753H115.502C115.385 25.3919 115.119 24.7503 114.702 24.2503C114.302 23.7336 113.702 23.4753 112.902 23.4753H111.727V28.6753C111.727 29.1586 111.769 29.5169 111.852 29.7503C111.952 29.9669 112.11 30.1169 112.327 30.2003C112.544 30.2669 112.869 30.3003 113.302 30.3003H114.377C115.56 30.3003 116.485 29.9586 117.152 29.2753C117.835 28.5919 118.31 27.4419 118.577 25.8253H119.152C119.102 26.2919 119.077 26.8919 119.077 27.6253ZM134.311 27.6253C134.311 28.5753 134.37 29.6586 134.486 30.8753C133.403 30.8253 131.578 30.8003 129.011 30.8003C125.578 30.8003 122.995 30.8253 121.261 30.8753V30.3753C121.828 30.3419 122.236 30.2753 122.486 30.1753C122.736 30.0753 122.903 29.8836 122.986 29.6003C123.086 29.3169 123.136 28.8586 123.136 28.2253V18.3253C123.136 17.6919 123.086 17.2336 122.986 16.9503C122.903 16.6669 122.728 16.4753 122.461 16.3753C122.211 16.2753 121.811 16.2086 121.261 16.1753V15.6753C122.995 15.7253 125.578 15.7503 129.011 15.7503C131.345 15.7503 133.003 15.7253 133.986 15.6753C133.87 16.7919 133.811 17.7919 133.811 18.6753C133.811 19.3253 133.836 19.8419 133.886 20.2253H133.311C133.061 18.7919 132.628 17.7753 132.011 17.1753C131.395 16.5586 130.545 16.2503 129.461 16.2503H128.536C128.103 16.2503 127.778 16.2919 127.561 16.3753C127.345 16.4419 127.186 16.5919 127.086 16.8253C127.003 17.0419 126.961 17.3919 126.961 17.8753V22.9753H128.136C128.903 22.9753 129.478 22.7086 129.861 22.1753C130.261 21.6253 130.528 20.9919 130.661 20.2753H131.236C131.186 20.8419 131.161 21.4919 131.161 22.2253V23.2253C131.161 23.9753 131.211 24.9586 131.311 26.1753H130.736C130.62 25.3919 130.353 24.7503 129.936 24.2503C129.536 23.7336 128.936 23.4753 128.136 23.4753H126.961V28.6753C126.961 29.1586 127.003 29.5169 127.086 29.7503C127.186 29.9669 127.345 30.1169 127.561 30.2003C127.778 30.2669 128.103 30.3003 128.536 30.3003H129.611C130.795 30.3003 131.72 29.9586 132.386 29.2753C133.07 28.5919 133.545 27.4419 133.811 25.8253H134.386C134.336 26.2919 134.311 26.8919 134.311 27.6253ZM152.671 29.8253C152.271 30.2919 151.821 30.6419 151.321 30.8753C150.821 31.1086 150.196 31.2253 149.446 31.2253C148.496 31.2253 147.762 31.0419 147.246 30.6753C146.729 30.3086 146.396 29.8169 146.246 29.2003L145.521 26.2503C145.337 25.3169 145.054 24.7003 144.671 24.4003C144.304 24.0836 143.754 23.9253 143.021 23.9253H142.196V28.2253C142.196 28.8586 142.237 29.3169 142.321 29.6003C142.421 29.8836 142.596 30.0753 142.846 30.1753C143.112 30.2753 143.521 30.3419 144.071 30.3753V30.8753C143.121 30.8253 141.762 30.8003 139.996 30.8003C138.446 30.8003 137.279 30.8253 136.496 30.8753V30.3753C137.062 30.3419 137.471 30.2753 137.721 30.1753C137.971 30.0753 138.137 29.8836 138.221 29.6003C138.321 29.3169 138.371 28.8586 138.371 28.2253V18.3253C138.371 17.6919 138.321 17.2336 138.221 16.9503C138.137 16.6669 137.971 16.4753 137.721 16.3753C137.471 16.2753 137.062 16.2086 136.496 16.1753V15.6753C137.279 15.7253 138.396 15.7503 139.846 15.7503L142.696 15.7253C143.029 15.7086 143.404 15.7003 143.821 15.7003C146.054 15.7003 147.721 16.0419 148.821 16.7253C149.937 17.3919 150.496 18.3253 150.496 19.5253C150.496 20.5586 150.054 21.4669 149.171 22.2503C148.287 23.0336 146.812 23.5336 144.746 23.7503C144.979 23.7503 145.221 23.7753 145.471 23.8253C146.671 23.9586 147.612 24.2253 148.296 24.6253C148.996 25.0253 149.454 25.6586 149.671 26.5253L150.196 28.7503C150.312 29.2169 150.454 29.5503 150.621 29.7503C150.787 29.9503 150.996 30.0503 151.246 30.0503C151.596 30.0503 151.954 29.8669 152.321 29.5003L152.671 29.8253ZM143.496 16.1753C143.129 16.1753 142.854 16.2336 142.671 16.3503C142.487 16.4669 142.362 16.6753 142.296 16.9753C142.229 17.2753 142.196 17.7253 142.196 18.3253V23.4253H143.271C144.504 23.4253 145.346 23.1086 145.796 22.4753C146.262 21.8419 146.496 20.9503 146.496 19.8003C146.496 18.5836 146.262 17.6753 145.796 17.0753C145.346 16.4753 144.579 16.1753 143.496 16.1753ZM166.437 13.1753C169.687 13.1753 172.121 13.9169 173.737 15.4003C175.354 16.8669 176.162 19.0086 176.162 21.8253C176.162 23.6419 175.762 25.2336 174.962 26.6003C174.179 27.9503 173.037 29.0003 171.537 29.7503C170.054 30.5003 168.279 30.8753 166.212 30.8753L164.662 30.8503C163.696 30.8169 162.996 30.8003 162.562 30.8003C160.846 30.8003 159.562 30.8253 158.712 30.8753V30.3753C159.262 30.3419 159.662 30.2753 159.912 30.1753C160.179 30.0753 160.354 29.8836 160.437 29.6003C160.537 29.3169 160.587 28.8586 160.587 28.2253V15.8253C160.587 15.1919 160.537 14.7336 160.437 14.4503C160.354 14.1669 160.179 13.9753 159.912 13.8753C159.662 13.7753 159.262 13.7086 158.712 13.6753V13.1753C159.412 13.2253 160.421 13.2503 161.737 13.2503H162.512L163.512 13.2253C164.879 13.1919 165.854 13.1753 166.437 13.1753ZM166.412 13.6253C165.896 13.6253 165.504 13.6836 165.237 13.8003C164.987 13.9169 164.812 14.1253 164.712 14.4253C164.612 14.7253 164.562 15.1753 164.562 15.7753V28.2753C164.562 28.8753 164.612 29.3253 164.712 29.6253C164.812 29.9253 164.987 30.1336 165.237 30.2503C165.504 30.3669 165.904 30.4253 166.437 30.4253C168.454 30.4253 169.887 29.7253 170.737 28.3253C171.587 26.9086 172.012 24.7753 172.012 21.9253C172.012 19.0753 171.571 16.9836 170.687 15.6503C169.821 14.3003 168.396 13.6253 166.412 13.6253ZM193.622 16.1753C193.038 16.2586 192.605 16.4003 192.322 16.6003C192.038 16.8003 191.847 17.1169 191.747 17.5503C191.647 17.9836 191.597 18.6253 191.597 19.4753V24.1003C191.597 25.2503 191.513 26.2336 191.347 27.0503C191.197 27.8503 190.938 28.5503 190.572 29.1503C190.172 29.7836 189.572 30.2919 188.772 30.6753C187.988 31.0419 187.097 31.2253 186.097 31.2253C184.213 31.2253 182.747 30.8586 181.697 30.1253C181.113 29.6919 180.672 29.2253 180.372 28.7253C180.072 28.2253 179.855 27.6253 179.722 26.9253C179.605 26.2086 179.547 25.2919 179.547 24.1753V18.3253C179.547 17.6919 179.497 17.2336 179.397 16.9503C179.313 16.6669 179.138 16.4753 178.872 16.3753C178.622 16.2753 178.222 16.2086 177.672 16.1753V15.6753C178.505 15.7253 179.772 15.7503 181.472 15.7503C183.088 15.7503 184.347 15.7253 185.247 15.6753V16.1753C184.68 16.2086 184.272 16.2753 184.022 16.3753C183.772 16.4753 183.597 16.6669 183.497 16.9503C183.413 17.2336 183.372 17.6919 183.372 18.3253V24.6003C183.372 25.8003 183.447 26.7919 183.597 27.5753C183.763 28.3586 184.105 28.9919 184.622 29.4753C185.138 29.9586 185.905 30.2003 186.922 30.2003C188.438 30.2003 189.497 29.6919 190.097 28.6753C190.713 27.6419 191.022 26.2086 191.022 24.3753V19.7753C191.022 18.8086 190.963 18.0919 190.847 17.6253C190.73 17.1586 190.505 16.8253 190.172 16.6253C189.838 16.4086 189.313 16.2586 188.597 16.1753V15.6753C189.247 15.7253 190.147 15.7503 191.297 15.7503C192.297 15.7503 193.072 15.7253 193.622 15.6753V16.1753ZM202.347 16.1753C201.78 16.2086 201.372 16.2753 201.122 16.3753C200.872 16.4753 200.697 16.6669 200.597 16.9503C200.514 17.2336 200.472 17.6919 200.472 18.3253V28.5253C200.472 29.0419 200.514 29.4253 200.597 29.6753C200.697 29.9253 200.855 30.0919 201.072 30.1753C201.289 30.2586 201.614 30.3003 202.047 30.3003H203.022C204.122 30.3003 205.047 29.9086 205.797 29.1253C206.547 28.3253 207.055 27.0419 207.322 25.2753H207.897C207.847 25.8253 207.822 26.5086 207.822 27.3253C207.822 28.3586 207.88 29.5419 207.997 30.8753C206.914 30.8253 205.089 30.8003 202.522 30.8003C199.089 30.8003 196.505 30.8253 194.772 30.8753V30.3753C195.339 30.3419 195.747 30.2753 195.997 30.1753C196.247 30.0753 196.414 29.8836 196.497 29.6003C196.597 29.3169 196.647 28.8586 196.647 28.2253V18.3253C196.647 17.6919 196.597 17.2336 196.497 16.9503C196.414 16.6669 196.239 16.4753 195.972 16.3753C195.722 16.2753 195.322 16.2086 194.772 16.1753V15.6753C195.622 15.7253 196.939 15.7503 198.722 15.7503C200.289 15.7503 201.497 15.7253 202.347 15.6753V16.1753ZM217.377 15.3253C218.344 15.3253 219.127 15.4669 219.727 15.7503C220.327 16.0169 220.944 16.4169 221.577 16.9503C221.76 17.1003 221.919 17.1753 222.052 17.1753C222.385 17.1753 222.602 16.6753 222.702 15.6753H223.277C223.21 16.6753 223.177 18.4253 223.177 20.9253H222.602C222.435 20.0253 222.269 19.3753 222.102 18.9753C221.935 18.5586 221.685 18.1419 221.352 17.7253C220.885 17.1753 220.352 16.7503 219.752 16.4503C219.169 16.1336 218.56 15.9753 217.927 15.9753C217.01 15.9753 216.21 16.2753 215.527 16.8753C214.844 17.4586 214.31 18.3003 213.927 19.4003C213.56 20.5003 213.377 21.8086 213.377 23.3253C213.377 24.8586 213.577 26.1753 213.977 27.2753C214.394 28.3586 214.96 29.1836 215.677 29.7503C216.394 30.3003 217.202 30.5753 218.102 30.5753C218.752 30.5753 219.385 30.4253 220.002 30.1253C220.635 29.8086 221.177 29.3753 221.627 28.8253C221.96 28.4086 222.202 27.9586 222.352 27.4753C222.502 26.9919 222.644 26.2919 222.777 25.3753H223.352C223.352 27.9919 223.385 29.8253 223.452 30.8753H222.877C222.827 30.3586 222.752 29.9836 222.652 29.7503C222.552 29.5003 222.419 29.3753 222.252 29.3753C222.119 29.3753 221.952 29.4503 221.752 29.6003C221.135 30.1169 220.494 30.5169 219.827 30.8003C219.16 31.0836 218.36 31.2253 217.427 31.2253C215.844 31.2253 214.444 30.9169 213.227 30.3003C212.01 29.6836 211.06 28.7919 210.377 27.6253C209.71 26.4586 209.377 25.0586 209.377 23.4253C209.377 21.8419 209.727 20.4336 210.427 19.2003C211.127 17.9669 212.077 17.0169 213.277 16.3503C214.494 15.6669 215.86 15.3253 217.377 15.3253ZM238.633 27.6253C238.633 28.5753 238.691 29.6586 238.808 30.8753C237.724 30.8253 235.899 30.8003 233.333 30.8003C229.899 30.8003 227.316 30.8253 225.583 30.8753V30.3753C226.149 30.3419 226.558 30.2753 226.808 30.1753C227.058 30.0753 227.224 29.8836 227.308 29.6003C227.408 29.3169 227.458 28.8586 227.458 28.2253V18.3253C227.458 17.6919 227.408 17.2336 227.308 16.9503C227.224 16.6669 227.049 16.4753 226.783 16.3753C226.533 16.2753 226.133 16.2086 225.583 16.1753V15.6753C227.316 15.7253 229.899 15.7503 233.333 15.7503C235.666 15.7503 237.324 15.7253 238.308 15.6753C238.191 16.7919 238.133 17.7919 238.133 18.6753C238.133 19.3253 238.158 19.8419 238.208 20.2253H237.633C237.383 18.7919 236.949 17.7753 236.333 17.1753C235.716 16.5586 234.866 16.2503 233.783 16.2503H232.858C232.424 16.2503 232.099 16.2919 231.883 16.3753C231.666 16.4419 231.508 16.5919 231.408 16.8253C231.324 17.0419 231.283 17.3919 231.283 17.8753V22.9753H232.458C233.224 22.9753 233.799 22.7086 234.183 22.1753C234.583 21.6253 234.849 20.9919 234.983 20.2753H235.558C235.508 20.8419 235.483 21.4919 235.483 22.2253V23.2253C235.483 23.9753 235.533 24.9586 235.633 26.1753H235.058C234.941 25.3919 234.674 24.7503 234.258 24.2503C233.858 23.7336 233.258 23.4753 232.458 23.4753H231.283V28.6753C231.283 29.1586 231.324 29.5169 231.408 29.7503C231.508 29.9669 231.666 30.1169 231.883 30.2003C232.099 30.2669 232.424 30.3003 232.858 30.3003H233.933C235.116 30.3003 236.041 29.9586 236.708 29.2753C237.391 28.5919 237.866 27.4419 238.133 25.8253H238.708C238.658 26.2919 238.633 26.8919 238.633 27.6253Z" fill="#E6A559"/>
</svg>
