<svg width="182" height="106" viewBox="0 0 182 106" fill="none" xmlns="http://www.w3.org/2000/svg">
<path d="M107.414 16.1772V49.0205C107.417 49.638 107.298 50.2501 107.063 50.8212C106.828 51.3923 106.482 51.9113 106.046 52.3479C105.609 52.7846 105.09 53.1303 104.519 53.3651C103.948 53.5999 103.336 53.7192 102.718 53.7159H79.2658C78.6483 53.7192 78.0363 53.5999 77.4651 53.3651C76.894 53.1303 76.3751 52.7846 75.9384 52.3479C75.5017 51.9113 75.156 51.3923 74.9212 50.8212C74.6864 50.2501 74.5671 49.638 74.5704 49.0205V16.1772H81.6012C82.2325 16.1764 82.8398 16.4184 83.2975 16.8532C83.7551 17.288 84.028 17.8821 84.0596 18.5126V22.028C84.0596 22.9603 84.4299 23.8545 85.0892 24.5138C85.7485 25.173 86.6426 25.5434 87.575 25.5434C88.5073 25.5434 89.4015 25.173 90.0608 24.5138C90.72 23.8545 91.0904 22.9603 91.0904 22.028V18.5126C91.122 17.8821 91.3948 17.288 91.8525 16.8532C92.3101 16.4184 92.9175 16.1764 93.5487 16.1772H107.414Z" stroke="#E6A559" stroke-width="4" stroke-miterlimit="10"/>
<path d="M107.414 20.8726H114.445C115.673 20.8657 116.855 21.3407 117.738 22.1955C118.62 23.0503 119.132 24.2169 119.165 25.4451V34.8359C119.165 35.4525 119.043 36.0631 118.807 36.6328C118.571 37.2025 118.225 37.7201 117.789 38.1561C117.353 38.5921 116.836 38.938 116.266 39.1739C115.696 39.4099 115.086 39.5313 114.469 39.5313H107.414V20.8726Z" stroke="#E6A559" stroke-width="4" stroke-miterlimit="10"/>
<path d="M86.2967 25.568V46.6851" stroke="#E6A559" stroke-width="4" stroke-miterlimit="10"/>
<path d="M95.6875 25.568V46.6851" stroke="#E6A559" stroke-width="4" stroke-miterlimit="10"/>
<path d="M93.3521 16.1772H106.258C107.143 16.1032 107.968 15.6996 108.569 15.0461C109.17 14.3927 109.504 13.5373 109.504 12.6495C109.504 11.7616 109.17 10.9062 108.569 10.2528C107.968 9.59936 107.143 9.19567 106.258 9.12175H102.718C102.713 7.89933 102.233 6.72682 101.38 5.85104C100.527 4.97526 99.3677 4.46452 98.1458 4.42633C97.6062 4.43492 97.0728 4.54327 96.5725 4.74592C95.8609 3.81017 94.9238 3.07 93.8487 2.59451C92.7736 2.11901 91.5955 1.9237 90.4245 2.02681C89.2535 2.12992 88.1277 2.52809 87.1522 3.18414C86.1767 3.84019 85.3834 4.73273 84.8463 5.77842C84.4209 5.35233 83.9148 5.01544 83.3576 4.78748C82.8004 4.55953 82.2033 4.44511 81.6013 4.45092C80.3622 4.4573 79.1753 4.95069 78.2968 5.82456C77.4183 6.69844 76.9187 7.88271 76.9058 9.12175H75.7504C75.2624 9.08098 74.7712 9.1419 74.308 9.30068C73.8447 9.45945 73.4194 9.71262 73.059 10.0442C72.6986 10.3757 72.4109 10.7785 72.2141 11.2269C72.0173 11.6753 71.9157 12.1597 71.9157 12.6495C71.9157 13.1392 72.0173 13.6236 72.2141 14.072C72.4109 14.5205 72.6986 14.9232 73.059 15.2547C73.4194 15.5863 73.8447 15.8395 74.308 15.9982C74.7712 16.157 75.2624 16.2179 75.7504 16.1772H81.6013" stroke="#E6A559" stroke-width="4" stroke-miterlimit="10"/>
<path d="M66.9035 14.2263L63.3238 17.806C61.9173 19.2125 61.1271 21.1202 61.1271 23.1093C61.1271 25.0984 61.9173 27.0061 63.3238 28.4126L65.1799 30.2688L68.7597 26.689C70.1662 25.2825 70.9564 23.3749 70.9564 21.3857C70.9564 19.3966 70.1662 17.489 68.7597 16.0824L66.9035 14.2263Z" stroke="#E6A559" stroke-width="2" stroke-miterlimit="10"/>
<path d="M61.5348 33.8938L65.1146 30.3141L63.3247 28.5243C61.9182 27.1177 60.0105 26.3276 58.0214 26.3276C56.0323 26.3276 54.1246 27.1177 52.7181 28.5243L49.1384 32.104L50.8619 33.8276C52.2685 35.2341 54.1761 36.0243 56.1652 36.0243C58.1544 36.0243 60.062 35.2341 61.4685 33.8276L61.5348 33.8938Z" stroke="#E6A559" stroke-width="2" stroke-miterlimit="10"/>
<path d="M75.8469 33.772L72.2672 37.3517L70.4773 35.5618C69.0708 34.1553 68.2806 32.2477 68.2806 30.2585C68.2806 28.2694 69.0708 26.3618 70.4773 24.9552L74.0571 21.3755L75.8469 23.1654" stroke="#E6A559" stroke-width="2" stroke-miterlimit="10"/>
<path d="M68.6743 41.0563L72.254 37.4766L70.5172 35.7398C69.1107 34.3333 67.203 33.5431 65.2139 33.5431C63.2248 33.5431 61.3171 34.3333 59.9106 35.7398L56.2513 39.3991L57.9218 41.0696C58.6216 41.7873 59.4582 42.3574 60.3821 42.7463C61.306 43.1351 62.2985 43.3348 63.3009 43.3336C64.3033 43.3324 65.2952 43.1302 66.2182 42.7391C67.1411 42.3479 67.9763 41.7757 68.6743 41.0563Z" stroke="#E6A559" stroke-width="2" stroke-miterlimit="10"/>
<path d="M75.8457 48.2321C75.147 48.9486 74.312 49.518 73.3898 49.9068C72.4676 50.2956 71.4769 50.4959 70.4761 50.4959C69.4753 50.4959 68.4847 50.2956 67.5625 49.9068C66.6403 49.518 65.8053 48.9486 65.1065 48.2321L63.383 46.5085L67.029 42.8625C68.4355 41.456 70.3432 40.6658 72.3323 40.6658C74.3214 40.6658 74.4392 41.456 75.8457 42.8625" stroke="#E6A559" stroke-width="2" stroke-miterlimit="10"/>
<path d="M49 14.2159V17.3659C49 19.355 49.7902 21.2627 51.1967 22.6692C52.6032 24.0757 54.5109 24.8659 56.5 24.8659H59.7437V21.8097C59.7437 19.8205 58.9536 17.9129 57.5471 16.5064C56.1405 15.0998 54.2329 14.3097 52.2437 14.3097H49V14.2159Z" stroke="#E6A559" stroke-width="2" stroke-miterlimit="10"/>
<path d="M121.051 28.4126C122.458 27.0061 123.248 25.0984 123.248 23.1093C123.248 21.1202 122.458 19.2125 121.051 17.806L117.471 14.2263L115.615 16.0824C114.209 17.489 113.419 19.3966 113.419 21.3857" stroke="#E6A559" stroke-width="2" stroke-miterlimit="10"/>
<path d="M122.84 33.8938L119.26 30.3141L121.05 28.5243C122.457 27.1177 124.364 26.3276 126.354 26.3276C128.343 26.3276 130.25 27.1177 131.657 28.5243L135.237 32.104L133.513 33.8276C132.107 35.2341 130.199 36.0243 128.21 36.0243C126.221 36.0243 124.313 35.2341 122.906 33.8276L122.84 33.8938Z" stroke="#E6A559" stroke-width="2" stroke-miterlimit="10"/>
<path d="M115.701 41.0563C116.399 41.7757 117.234 42.3479 118.157 42.7391C119.08 43.1302 120.072 43.3324 121.074 43.3336C122.077 43.3348 123.069 43.1351 123.993 42.7463C124.917 42.3574 125.753 41.7873 126.453 41.0696L128.124 39.3991L124.464 35.7398C123.058 34.3333 121.15 33.5431 119.161 33.5431" stroke="#E6A559" stroke-width="2" stroke-miterlimit="10"/>
<path d="M108.529 48.2321C109.228 48.9486 110.063 49.518 110.985 49.9068C111.907 50.2956 112.898 50.4959 113.899 50.4959C114.9 50.4959 115.89 50.2956 116.813 49.9068C117.735 49.518 118.57 48.9486 119.268 48.2321L120.992 46.5085L117.346 42.8625C115.939 41.456 114.032 40.6658 112.043 40.6658C110.054 40.6658 108.146 41.456 106.739 42.8625" stroke="#E6A559" stroke-width="2" stroke-miterlimit="10"/>
<path d="M135.375 14.2159V17.3659C135.375 19.355 134.585 21.2627 133.178 22.6692C131.772 24.0757 129.864 24.8659 127.875 24.8659H124.631V21.8097C124.631 19.8205 125.421 17.9129 126.828 16.5064C128.234 15.0998 130.142 14.3097 132.131 14.3097H135.375V14.2159Z" stroke="#E6A559" stroke-width="2" stroke-miterlimit="10"/>
<path d="M11.7 86.84C14.3 87.04 16.21 87.64 17.43 88.64C18.65 89.64 19.26 90.82 19.26 92.18C19.26 94.04 18.53 95.48 17.07 96.5C15.61 97.5 13.58 98 10.98 98C10.4 98 9.91 97.99 9.51 97.97C8.19 97.93 6.9 97.91 5.64 97.91C3.58 97.91 2.04 97.94 1.02 98V97.4C1.68 97.36 2.16 97.28 2.46 97.16C2.78 97.04 2.99 96.81 3.09 96.47C3.21 96.13 3.27 95.58 3.27 94.82V79.94C3.27 79.18 3.21 78.63 3.09 78.29C2.99 77.95 2.78 77.72 2.46 77.6C2.16 77.48 1.68 77.4 1.02 77.36V76.76C2.04 76.82 3.56 76.85 5.58 76.85L8.91 76.82C9.31 76.8 9.77 76.79 10.29 76.79C12.69 76.79 14.52 77.22 15.78 78.08C17.06 78.94 17.7 80.08 17.7 81.5C17.7 82.66 17.19 83.74 16.17 84.74C15.17 85.74 13.68 86.42 11.7 86.78V86.84ZM9.9 77.36C9.36 77.36 8.96 77.43 8.7 77.57C8.46 77.71 8.29 77.96 8.19 78.32C8.09 78.68 8.04 79.22 8.04 79.94V86.72H9.33C10.63 86.72 11.54 86.28 12.06 85.4C12.58 84.5 12.84 83.31 12.84 81.83C12.84 80.33 12.6 79.21 12.12 78.47C11.66 77.73 10.92 77.36 9.9 77.36ZM10.11 97.31C12.89 97.31 14.28 95.56 14.28 92.06C14.28 90.48 13.88 89.28 13.08 88.46C12.28 87.64 11.02 87.23 9.3 87.23H8.04V94.82C8.04 95.54 8.09 96.07 8.19 96.41C8.29 96.75 8.48 96.99 8.76 97.13C9.06 97.25 9.51 97.31 10.11 97.31ZM36.8363 94.1C36.8363 95.24 36.9063 96.54 37.0463 98C35.7463 97.94 33.5563 97.91 30.4763 97.91C26.3563 97.91 23.2563 97.94 21.1763 98V97.4C21.8563 97.36 22.3463 97.28 22.6463 97.16C22.9463 97.04 23.1463 96.81 23.2463 96.47C23.3663 96.13 23.4263 95.58 23.4263 94.82V82.94C23.4263 82.18 23.3663 81.63 23.2463 81.29C23.1463 80.95 22.9363 80.72 22.6163 80.6C22.3163 80.48 21.8363 80.4 21.1763 80.36V79.76C23.2563 79.82 26.3563 79.85 30.4763 79.85C33.2763 79.85 35.2663 79.82 36.4463 79.76C36.3063 81.1 36.2363 82.3 36.2363 83.36C36.2363 84.14 36.2663 84.76 36.3263 85.22H35.6363C35.3363 83.5 34.8163 82.28 34.0763 81.56C33.3363 80.82 32.3163 80.45 31.0163 80.45H29.9063C29.3863 80.45 28.9963 80.5 28.7363 80.6C28.4763 80.68 28.2863 80.86 28.1663 81.14C28.0663 81.4 28.0163 81.82 28.0163 82.4V88.52H29.4263C30.3463 88.52 31.0363 88.2 31.4963 87.56C31.9763 86.9 32.2963 86.14 32.4563 85.28H33.1463C33.0863 85.96 33.0563 86.74 33.0563 87.62V88.82C33.0563 89.72 33.1163 90.9 33.2363 92.36H32.5463C32.4063 91.42 32.0863 90.65 31.5863 90.05C31.1063 89.43 30.3863 89.12 29.4263 89.12H28.0163V95.36C28.0163 95.94 28.0663 96.37 28.1663 96.65C28.2863 96.91 28.4763 97.09 28.7363 97.19C28.9963 97.27 29.3863 97.31 29.9063 97.31H31.1963C32.6163 97.31 33.7263 96.9 34.5263 96.08C35.3463 95.26 35.9163 93.88 36.2363 91.94H36.9263C36.8663 92.5 36.8363 93.22 36.8363 94.1ZM55.1175 94.1C55.1175 95.24 55.1875 96.54 55.3275 98C54.0275 97.94 51.8375 97.91 48.7575 97.91C44.6375 97.91 41.5375 97.94 39.4575 98V97.4C40.1375 97.36 40.6275 97.28 40.9275 97.16C41.2275 97.04 41.4275 96.81 41.5275 96.47C41.6475 96.13 41.7075 95.58 41.7075 94.82V82.94C41.7075 82.18 41.6475 81.63 41.5275 81.29C41.4275 80.95 41.2175 80.72 40.8975 80.6C40.5975 80.48 40.1175 80.4 39.4575 80.36V79.76C41.5375 79.82 44.6375 79.85 48.7575 79.85C51.5575 79.85 53.5475 79.82 54.7275 79.76C54.5875 81.1 54.5175 82.3 54.5175 83.36C54.5175 84.14 54.5475 84.76 54.6075 85.22H53.9175C53.6175 83.5 53.0975 82.28 52.3575 81.56C51.6175 80.82 50.5975 80.45 49.2975 80.45H48.1875C47.6675 80.45 47.2775 80.5 47.0175 80.6C46.7575 80.68 46.5675 80.86 46.4475 81.14C46.3475 81.4 46.2975 81.82 46.2975 82.4V88.52H47.7075C48.6275 88.52 49.3175 88.2 49.7775 87.56C50.2575 86.9 50.5775 86.14 50.7375 85.28H51.4275C51.3675 85.96 51.3375 86.74 51.3375 87.62V88.82C51.3375 89.72 51.3975 90.9 51.5175 92.36H50.8275C50.6875 91.42 50.3675 90.65 49.8675 90.05C49.3875 89.43 48.6675 89.12 47.7075 89.12H46.2975V95.36C46.2975 95.94 46.3475 96.37 46.4475 96.65C46.5675 96.91 46.7575 97.09 47.0175 97.19C47.2775 97.27 47.6675 97.31 48.1875 97.31H49.4775C50.8975 97.31 52.0075 96.9 52.8075 96.08C53.6275 95.26 54.1975 93.88 54.5175 91.94H55.2075C55.1475 92.5 55.1175 93.22 55.1175 94.1ZM77.1488 96.74C76.6688 97.3 76.1288 97.72 75.5288 98C74.9288 98.28 74.1788 98.42 73.2788 98.42C72.1388 98.42 71.2588 98.2 70.6388 97.76C70.0188 97.32 69.6188 96.73 69.4388 95.99L68.5688 92.45C68.3488 91.33 68.0088 90.59 67.5488 90.23C67.1088 89.85 66.4488 89.66 65.5688 89.66H64.5788V94.82C64.5788 95.58 64.6288 96.13 64.7288 96.47C64.8488 96.81 65.0588 97.04 65.3588 97.16C65.6788 97.28 66.1688 97.36 66.8288 97.4V98C65.6888 97.94 64.0588 97.91 61.9388 97.91C60.0788 97.91 58.6788 97.94 57.7388 98V97.4C58.4188 97.36 58.9088 97.28 59.2088 97.16C59.5088 97.04 59.7088 96.81 59.8088 96.47C59.9288 96.13 59.9888 95.58 59.9888 94.82V82.94C59.9888 82.18 59.9288 81.63 59.8088 81.29C59.7088 80.95 59.5088 80.72 59.2088 80.6C58.9088 80.48 58.4188 80.4 57.7388 80.36V79.76C58.6788 79.82 60.0188 79.85 61.7588 79.85L65.1788 79.82C65.5788 79.8 66.0288 79.79 66.5288 79.79C69.2088 79.79 71.2088 80.2 72.5288 81.02C73.8688 81.82 74.5388 82.94 74.5388 84.38C74.5388 85.62 74.0088 86.71 72.9488 87.65C71.8888 88.59 70.1188 89.19 67.6388 89.45C67.9188 89.45 68.2088 89.48 68.5088 89.54C69.9488 89.7 71.0788 90.02 71.8988 90.5C72.7388 90.98 73.2888 91.74 73.5488 92.78L74.1788 95.45C74.3188 96.01 74.4888 96.41 74.6888 96.65C74.8888 96.89 75.1388 97.01 75.4388 97.01C75.8588 97.01 76.2888 96.79 76.7288 96.35L77.1488 96.74ZM66.1388 80.36C65.6988 80.36 65.3688 80.43 65.1488 80.57C64.9288 80.71 64.7788 80.96 64.6988 81.32C64.6188 81.68 64.5788 82.22 64.5788 82.94V89.06H65.8688C67.3488 89.06 68.3588 88.68 68.8988 87.92C69.4588 87.16 69.7388 86.09 69.7388 84.71C69.7388 83.25 69.4588 82.16 68.8988 81.44C68.3588 80.72 67.4388 80.36 66.1388 80.36ZM93.6689 76.76C97.5689 76.76 100.489 77.65 102.429 79.43C104.369 81.19 105.339 83.76 105.339 87.14C105.339 89.32 104.859 91.23 103.899 92.87C102.959 94.49 101.589 95.75 99.7889 96.65C98.0089 97.55 95.8789 98 93.3989 98L91.5389 97.97C90.3789 97.93 89.5389 97.91 89.0189 97.91C86.9589 97.91 85.4189 97.94 84.3989 98V97.4C85.0589 97.36 85.5389 97.28 85.8389 97.16C86.1589 97.04 86.3689 96.81 86.4689 96.47C86.5889 96.13 86.6489 95.58 86.6489 94.82V79.94C86.6489 79.18 86.5889 78.63 86.4689 78.29C86.3689 77.95 86.1589 77.72 85.8389 77.6C85.5389 77.48 85.0589 77.4 84.3989 77.36V76.76C85.2389 76.82 86.4489 76.85 88.0289 76.85H88.9589L90.1589 76.82C91.7989 76.78 92.9689 76.76 93.6689 76.76ZM93.6389 77.3C93.0189 77.3 92.5489 77.37 92.2289 77.51C91.9289 77.65 91.7189 77.9 91.5989 78.26C91.4789 78.62 91.4189 79.16 91.4189 79.88V94.88C91.4189 95.6 91.4789 96.14 91.5989 96.5C91.7189 96.86 91.9289 97.11 92.2289 97.25C92.5489 97.39 93.0289 97.46 93.6689 97.46C96.0889 97.46 97.8089 96.62 98.8289 94.94C99.8489 93.24 100.359 90.68 100.359 87.26C100.359 83.84 99.8289 81.33 98.7689 79.73C97.7289 78.11 96.0189 77.3 93.6389 77.3ZM126.29 80.36C125.59 80.46 125.07 80.63 124.73 80.87C124.39 81.11 124.16 81.49 124.04 82.01C123.92 82.53 123.86 83.3 123.86 84.32V89.87C123.86 91.25 123.76 92.43 123.56 93.41C123.38 94.37 123.07 95.21 122.63 95.93C122.15 96.69 121.43 97.3 120.47 97.76C119.53 98.2 118.46 98.42 117.26 98.42C115 98.42 113.24 97.98 111.98 97.1C111.28 96.58 110.75 96.02 110.39 95.42C110.03 94.82 109.77 94.1 109.61 93.26C109.47 92.4 109.4 91.3 109.4 89.96V82.94C109.4 82.18 109.34 81.63 109.22 81.29C109.12 80.95 108.91 80.72 108.59 80.6C108.29 80.48 107.81 80.4 107.15 80.36V79.76C108.15 79.82 109.67 79.85 111.71 79.85C113.65 79.85 115.16 79.82 116.24 79.76V80.36C115.56 80.4 115.07 80.48 114.77 80.6C114.47 80.72 114.26 80.95 114.14 81.29C114.04 81.63 113.99 82.18 113.99 82.94V90.47C113.99 91.91 114.08 93.1 114.26 94.04C114.46 94.98 114.87 95.74 115.49 96.32C116.11 96.9 117.03 97.19 118.25 97.19C120.07 97.19 121.34 96.58 122.06 95.36C122.8 94.12 123.17 92.4 123.17 90.2V84.68C123.17 83.52 123.1 82.66 122.96 82.1C122.82 81.54 122.55 81.14 122.15 80.9C121.75 80.64 121.12 80.46 120.26 80.36V79.76C121.04 79.82 122.12 79.85 123.5 79.85C124.7 79.85 125.63 79.82 126.29 79.76V80.36ZM136.76 80.36C136.08 80.4 135.59 80.48 135.29 80.6C134.99 80.72 134.78 80.95 134.66 81.29C134.56 81.63 134.51 82.18 134.51 82.94V95.18C134.51 95.8 134.56 96.26 134.66 96.56C134.78 96.86 134.97 97.06 135.23 97.16C135.49 97.26 135.88 97.31 136.4 97.31H137.57C138.89 97.31 140 96.84 140.9 95.9C141.8 94.94 142.41 93.4 142.73 91.28H143.42C143.36 91.94 143.33 92.76 143.33 93.74C143.33 94.98 143.4 96.4 143.54 98C142.24 97.94 140.05 97.91 136.97 97.91C132.85 97.91 129.75 97.94 127.67 98V97.4C128.35 97.36 128.84 97.28 129.14 97.16C129.44 97.04 129.64 96.81 129.74 96.47C129.86 96.13 129.92 95.58 129.92 94.82V82.94C129.92 82.18 129.86 81.63 129.74 81.29C129.64 80.95 129.43 80.72 129.11 80.6C128.81 80.48 128.33 80.4 127.67 80.36V79.76C128.69 79.82 130.27 79.85 132.41 79.85C134.29 79.85 135.74 79.82 136.76 79.76V80.36ZM154.796 79.34C155.956 79.34 156.896 79.51 157.616 79.85C158.336 80.17 159.076 80.65 159.836 81.29C160.056 81.47 160.246 81.56 160.406 81.56C160.806 81.56 161.066 80.96 161.186 79.76H161.876C161.796 80.96 161.756 83.06 161.756 86.06H161.066C160.866 84.98 160.666 84.2 160.466 83.72C160.266 83.22 159.966 82.72 159.566 82.22C159.006 81.56 158.366 81.05 157.646 80.69C156.946 80.31 156.216 80.12 155.456 80.12C154.356 80.12 153.396 80.48 152.576 81.2C151.756 81.9 151.116 82.91 150.656 84.23C150.216 85.55 149.996 87.12 149.996 88.94C149.996 90.78 150.236 92.36 150.716 93.68C151.216 94.98 151.896 95.97 152.756 96.65C153.616 97.31 154.586 97.64 155.666 97.64C156.446 97.64 157.206 97.46 157.946 97.1C158.706 96.72 159.356 96.2 159.896 95.54C160.296 95.04 160.586 94.5 160.766 93.92C160.946 93.34 161.116 92.5 161.276 91.4H161.966C161.966 94.54 162.006 96.74 162.086 98H161.396C161.336 97.38 161.246 96.93 161.126 96.65C161.006 96.35 160.846 96.2 160.646 96.2C160.486 96.2 160.286 96.29 160.046 96.47C159.306 97.09 158.536 97.57 157.736 97.91C156.936 98.25 155.976 98.42 154.856 98.42C152.956 98.42 151.276 98.05 149.816 97.31C148.356 96.57 147.216 95.5 146.396 94.1C145.596 92.7 145.196 91.02 145.196 89.06C145.196 87.16 145.616 85.47 146.456 83.99C147.296 82.51 148.436 81.37 149.876 80.57C151.336 79.75 152.976 79.34 154.796 79.34ZM180.303 94.1C180.303 95.24 180.373 96.54 180.513 98C179.213 97.94 177.023 97.91 173.943 97.91C169.823 97.91 166.723 97.94 164.643 98V97.4C165.323 97.36 165.813 97.28 166.113 97.16C166.413 97.04 166.613 96.81 166.713 96.47C166.833 96.13 166.893 95.58 166.893 94.82V82.94C166.893 82.18 166.833 81.63 166.713 81.29C166.613 80.95 166.403 80.72 166.083 80.6C165.783 80.48 165.303 80.4 164.643 80.36V79.76C166.723 79.82 169.823 79.85 173.943 79.85C176.743 79.85 178.733 79.82 179.913 79.76C179.773 81.1 179.703 82.3 179.703 83.36C179.703 84.14 179.733 84.76 179.793 85.22H179.103C178.803 83.5 178.283 82.28 177.543 81.56C176.803 80.82 175.783 80.45 174.483 80.45H173.373C172.853 80.45 172.463 80.5 172.203 80.6C171.943 80.68 171.753 80.86 171.633 81.14C171.533 81.4 171.483 81.82 171.483 82.4V88.52H172.893C173.813 88.52 174.503 88.2 174.963 87.56C175.443 86.9 175.763 86.14 175.923 85.28H176.613C176.553 85.96 176.523 86.74 176.523 87.62V88.82C176.523 89.72 176.583 90.9 176.703 92.36H176.013C175.873 91.42 175.553 90.65 175.053 90.05C174.573 89.43 173.853 89.12 172.893 89.12H171.483V95.36C171.483 95.94 171.533 96.37 171.633 96.65C171.753 96.91 171.943 97.09 172.203 97.19C172.463 97.27 172.853 97.31 173.373 97.31H174.663C176.083 97.31 177.193 96.9 177.993 96.08C178.813 95.26 179.383 93.88 179.703 91.94H180.393C180.333 92.5 180.303 93.22 180.303 94.1Z" fill="#E6A559"/>
</svg>
